HIERARCHY
ROOT Hips
{
	OFFSET -0.001795 -0.223333 0.028219
	CHANNELS 6 Xposition Yposition Zposition Zrotation Yrotation Xrotation 
	JOINT LeftUpLeg
	{
		OFFSET 0.069520 -0.091406 -0.006815
		CHANNELS 3 Zrotation Yrotation Xrotation
		JOINT LeftLeg
		{
			OFFSET 0.034277 -0.375199 -0.004496
			CHANNELS 3 Zrotation Yrotation Xrotation
			JOINT LeftFoot
			{
				OFFSET -0.013596 -0.397961 -0.043693
				CHANNELS 3 Zrotation Yrotation Xrotation
				JOINT LeftToe
				{
					OFFSET 0.026358 -0.055791 0.119288
					CHANNELS 3 Zrotation Yrotation Xrotation
					End Site
					{
						OFFSET 0.000000 0.000000 0.000000
					}
				}
			}
		}
	}
	JOINT RightUpLeg
	{
		OFFSET -0.067670 -0.090522 -0.004320
		CHANNELS 3 Zrotation Yrotation Xrotation
		JOINT RightLeg
		{
			OFFSET -0.038290 -0.382569 -0.008850
			CHANNELS 3 Zrotation Yrotation Xrotation
			JOINT RightFoot
			{
				OFFSET 0.015774 -0.398415 -0.042312
				CHANNELS 3 Zrotation Yrotation Xrotation
				JOINT RightToe
				{
					OFFSET -0.025372 -0.048144 0.123348
					CHANNELS 3 Zrotation Yrotation Xrotation
					End Site
					{
						OFFSET 0.000000 0.000000 0.000000
					}
				}
			}
		}
	}
	JOINT Spine
	{
		OFFSET -0.002533 0.108963 -0.026696
		CHANNELS 3 Zrotation Yrotation Xrotation
		JOINT Spine1
		{
			OFFSET 0.005487 0.135180 0.001092
			CHANNELS 3 Zrotation Yrotation Xrotation
			JOINT Spine2
			{
				OFFSET 0.001457 0.052922 0.025425
				CHANNELS 3 Zrotation Yrotation Xrotation
				JOINT Neck
				{
					OFFSET -0.002778 0.213870 -0.042857
					CHANNELS 3 Zrotation Yrotation Xrotation
					JOINT Head
					{
						OFFSET 0.005152 0.064970 0.051349
						CHANNELS 3 Zrotation Yrotation Xrotation
						End Site
						{
							OFFSET 0.000000 0.000000 0.000000
						}
					}
				}
				JOINT LeftShoulder
				{
					OFFSET 0.078845 0.121749 -0.034090
					CHANNELS 3 Zrotation Yrotation Xrotation
					JOINT LeftArm
					{
						OFFSET 0.090977 0.030469 -0.008868
						CHANNELS 3 Zrotation Yrotation Xrotation
						JOINT LeftForeArm
						{
							OFFSET 0.259612 -0.012772 -0.027456
							CHANNELS 3 Zrotation Yrotation Xrotation
							JOINT LeftHand
							{
								OFFSET 0.249234 0.008986 -0.001171
								CHANNELS 3 Zrotation Yrotation Xrotation
								End Site
								{
									OFFSET 0.000000 0.000000 0.000000
								}
							}
						}
					}
				}
				JOINT RightShoulder
				{
					OFFSET -0.081759 0.118833 -0.038615
					CHANNELS 3 Zrotation Yrotation Xrotation
					JOINT RightArm
					{
						OFFSET -0.096012 0.032551 -0.009143
						CHANNELS 3 Zrotation Yrotation Xrotation
						JOINT RightForeArm
						{
							OFFSET -0.253742 -0.013329 -0.021401
							CHANNELS 3 Zrotation Yrotation Xrotation
							JOINT RightHand
							{
								OFFSET -0.255298 0.007772 -0.005559
								CHANNELS 3 Zrotation Yrotation Xrotation
								End Site
								{
									OFFSET 0.000000 0.000000 0.000000
								}
							}
						}
					}
				}
			}
		}
	}
}
MOTION
Frames: 9
Frame Time: 0.050000
0.011733 0.937191 0.014998 -2.797074 0.003385 9.585846 9.148578 -0.463105 -13.044168 -0.841637 -0.141543 9.026845 2.940496 7.009211 2.453472 0.000000 0.000000 0.000000 -1.401430 1.547651 -16.770399 -1.686997 0.789168 11.251198 -0.527660 -2.837954 3.222504 0.000000 0.000000 0.000000 3.672701 -0.101317 -0.764158 0.678494 -0.334150 0.539658 -4.450603 2.518767 1.374426 7.774250 -3.764883 -12.121141 0.000000 0.000000 0.000000 -18.418016 -21.643114 8.888100 -27.929730 -40.354279 5.587470 50.531821 -39.802695 -17.799553 0.000000 0.000000 0.000000 21.284571 19.386546 10.351168 36.758584 38.981528 7.907380 -34.391200 63.870582 -17.810947 0.000000 0.000000 0.000000 
0.012194 0.936581 0.017388 -2.907747 0.591131 9.407692 9.194267 -0.468780 -12.340587 -0.588764 -0.161697 7.808652 2.710710 6.516034 2.295435 0.000000 0.000000 0.000000 -1.044010 1.515472 -16.137978 -1.971054 0.819955 10.915574 -0.554399 -2.708529 2.837016 0.000000 0.000000 0.000000 3.656070 -0.067431 -1.207082 0.820143 -0.407670 0.632888 -4.371797 2.561926 0.356304 7.885320 -3.862624 -11.672502 0.000000 0.000000 0.000000 -19.842539 -20.275860 8.068871 -30.915862 -40.716050 6.668925 52.472808 -40.999368 -19.367543 0.000000 0.000000 0.000000 21.902911 17.170246 9.189265 39.393272 37.905000 8.370931 -36.815124 64.265030 -19.407753 0.000000 0.000000 0.000000 
0.012400 0.936238 0.019388 -2.983368 1.169222 9.480101 9.096601 -0.492561 -12.142329 0.126556 -0.273584 7.300575 2.357499 5.812313 2.261273 0.000000 0.000000 0.000000 -0.789362 1.483894 -15.623294 -2.183580 0.801437 9.968590 -0.565587 -2.796433 3.050453 0.000000 0.000000 0.000000 3.632901 0.005179 -2.217712 0.922244 -0.484796 1.266029 -4.510917 2.238385 -0.597310 7.774522 -3.908817 -10.862239 0.000000 0.000000 0.000000 -21.287809 -18.508027 7.068991 -33.759706 -41.127607 7.745775 52.544551 -42.197223 -20.095668 0.000000 0.000000 0.000000 23.102732 15.231650 8.136228 42.699833 35.770249 8.574575 -37.265895 64.383861 -19.749736 0.000000 0.000000 0.000000 
0.012463 0.935684 0.021207 -2.982438 2.240294 9.362508 9.172751 -0.513854 -11.778014 0.407307 -0.288722 6.299931 1.952860 5.067326 2.371954 0.000000 0.000000 0.000000 -0.737102 1.421806 -15.054989 -2.026703 0.728569 9.388536 -0.588845 -2.734948 2.892763 0.000000 0.000000 0.000000 3.388069 0.034689 -2.578063 1.098273 -0.580480 1.324537 -4.517194 2.167006 -1.259894 7.998210 -4.009186 -10.814432 0.000000 0.000000 0.000000 -22.303975 -17.117772 6.077252 -37.713054 -40.646921 8.900882 51.792569 -43.695122 -20.726011 0.000000 0.000000 0.000000 23.664130 12.781437 6.823187 46.392651 32.167022 8.102087 -34.880331 66.050288 -18.687393 0.000000 0.000000 0.000000 
0.012500 0.935009 0.022892 -3.043353 2.731574 9.339452 9.113499 -0.523453 -11.241980 0.986605 -0.331300 5.186782 1.596360 4.529819 2.804289 0.000000 0.000000 0.000000 -0.397280 1.395620 -14.506867 -2.486680 0.759942 8.477343 -0.689761 -2.929497 2.830749 0.000000 0.000000 0.000000 3.383969 0.058681 -2.942212 1.206612 -0.653426 1.653709 -4.821359 1.650258 -1.608966 8.067052 -4.111176 -10.508838 0.000000 0.000000 0.000000 -23.387284 -15.051707 4.898466 -40.533315 -38.935435 9.172470 50.026751 -45.799061 -20.975842 0.000000 0.000000 0.000000 24.314832 10.627219 5.446416 49.675058 27.446907 6.843853 -30.365099 69.957707 -17.028797 0.000000 0.000000 0.000000 
0.012547 0.934145 0.024358 -2.998702 2.938661 8.983060 8.855396 -0.524703 -10.587618 1.501547 -0.365617 4.346517 1.380630 4.184154 3.003103 0.000000 0.000000 0.000000 -0.491238 1.326897 -13.863289 -2.406636 0.725871 8.145483 -0.698262 -2.813523 2.503856 0.000000 0.000000 0.000000 3.279230 0.024959 -2.365771 1.139145 -0.604504 1.290518 -4.884043 1.654421 -1.695821 8.108341 -4.052961 -10.889759 0.000000 0.000000 0.000000 -24.380781 -13.797580 4.078220 -42.699268 -36.548912 8.908063 47.146450 -47.804800 -20.595986 0.000000 0.000000 0.000000 24.417625 8.369981 4.072838 52.307135 23.192718 5.410882 -18.863581 75.403750 -9.938747 0.000000 0.000000 0.000000 
0.012515 0.933563 0.025182 -2.981241 3.254990 8.945159 8.843559 -0.524984 -10.112061 1.810263 -0.364290 3.507248 1.236320 4.169029 3.665153 0.000000 0.000000 0.000000 -0.389921 1.289816 -13.397308 -2.484870 0.702406 7.507140 -0.967312 -3.404714 2.381746 0.000000 0.000000 0.000000 3.424045 0.012194 -2.231228 1.147459 -0.608734 1.248865 -5.376026 1.407714 -1.659160 8.399255 -4.126212 -11.457935 0.000000 0.000000 0.000000 -24.905098 -12.355191 3.168423 -44.812681 -34.151054 8.505069 43.649514 -49.059905 -19.451671 0.000000 0.000000 0.000000 24.356994 6.815330 3.117562 54.294399 19.961888 4.193328 2.582095 79.764249 7.062990 0.000000 0.000000 0.000000 
0.012329 0.933404 0.025139 -2.903061 3.233481 8.636303 8.427957 -0.526130 -9.610504 1.931030 -0.345855 2.862494 1.344165 4.512480 4.019192 0.000000 0.000000 0.000000 -0.367438 1.244862 -12.883820 -2.735309 0.726966 7.173339 -0.752140 -2.895994 2.412867 0.000000 0.000000 0.000000 3.264685 -0.008378 -1.822017 1.219699 -0.637039 1.121709 -5.672889 1.457299 -1.630390 8.514859 -4.063487 -12.125310 0.000000 0.000000 0.000000 -24.942831 -11.412375 2.543696 -46.647377 -31.584339 7.870610 39.969836 -50.239374 -18.143953 0.000000 0.000000 0.000000 24.301567 5.670310 2.446649 55.307056 18.446577 3.588816 26.847835 80.621829 27.894607 0.000000 0.000000 0.000000 
0.012030 0.933211 0.024120 -2.870015 3.047553 8.523573 8.478501 -0.518216 -9.642758 1.630474 -0.321024 3.116628 1.614350 4.961158 3.847674 0.000000 0.000000 0.000000 -0.287607 1.236518 -12.714394 -2.884455 0.748472 7.092359 -0.661938 -2.648544 2.318905 0.000000 0.000000 0.000000 3.158275 -0.024385 -1.515904 1.091748 -0.570859 1.054102 -5.716532 1.329278 -1.568164 8.750863 -4.012511 -13.232200 0.000000 0.000000 0.000000 -24.895549 -11.482003 2.663363 -47.316580 -29.968163 7.308710 35.385102 -50.163215 -15.744192 0.000000 0.000000 0.000000 23.946711 6.129965 2.658744 55.097180 19.840805 4.251845 25.825876 79.344929 26.328665 0.000000 0.000000 0.000000 
